# xmcd CD database file
#
# Track frame offsets:
#	150
#	12750
#	27775
#	40612
#	50550
#	61412
#	74275
#	87062
#	99200
#	108962
#	121487
#	131287
#	142575
#	153075
#	164000
#	178462
#
# Disc length: 2480 seconds
#
# Revision: 10
# Processed by: cddbd v1.5.2PL0 Copyright (c) Steve Scherf et al.
# Submitted via: CDex 1.70beta2
#
DISCID=c409ae10
DTITLE=Various Artist - The World of Country and Western - Vol. 1 - CD1
DYEAR=1995
DGENRE=Folk
TTITLE0=Johnny Cash - Folsom Prison Blues
TTITLE1=Kenny Rogers - For The Good Times
TTITLE2=Oak Ridge Boys - The Old Country Church
TTITLE3=Dolly Parton - Release Me
TTITLE4=Johnny Cash - I Love You Because
TTITLE5=Oak Ridge Boys - Dear Jesus Abide With Me
TTITLE6=Kenny Rogers - Ruby, Dont Take Your Love To Town
TTITLE7=Dolly Parton - Two Little Orphans
TTITLE8=Johnny Cash - Ballad Of A Teenage Queen
TTITLE9=Oak Ridge Boys - Thank God I'm Reborn
TTITLE10=Johnny Cash - Rock Island Line
TTITLE11=Dolly Parton - Makin' Believe
TTITLE12=Kenny Rogers - She Even Woke Me Up To Say Goodbye
TTITLE13=Oak Ridge Boys - I'll Wake Up To The Other Side
TTITLE14=Kenny Rogers - Hear The Call
TTITLE15=Johnny Cash - Hey Good Lookin'
EXTD=ZYX Music - ZYX 11005-2 YEAR: 1995
EXTT0=
EXTT1=
EXTT2=
EXTT3=
EXTT4=
EXTT5=
EXTT6=
EXTT7=
EXTT8=
EXTT9=
EXTT10=
EXTT11=
EXTT12=
EXTT13=
EXTT14=
EXTT15=
PLAYORDER=
